<?xml version="1.0" encoding="UTF-8" standalone="no"?>
<svg width="60px" height="15px" viewBox="0 0 60 15" version="1.1" xmlns="http://www.w3.org/2000/svg" xmlns:xlink="http://www.w3.org/1999/xlink">
    <!-- Generator: Sketch 47.1 (45422) - http://www.bohemiancoding.com/sketch -->
    <title>Shape</title>
    <desc>Created with Sketch.</desc>
    <defs></defs>
    <g id="Page-1" stroke="none" stroke-width="1" fill="none" fill-rule="evenodd">
        <g id="everyday-tab_widgets-list" transform="translate(-60.000000, -961.000000)" fill-rule="nonzero" fill="#DD0000">
            <g id="item" transform="translate(25.000000, 87.000000)">
                <g transform="translate(15.000000, 831.000000)" id="Shape">
                    <path d="M39.565976,43.0000439 C37.330975,42.9970484 35.8508074,44.1898314 35.6425775,45.9734586 C35.5653589,46.6296689 35.4924785,47.209541 35.4924785,47.209541 L64.5726523,47.209541 C64.5726523,47.209541 64.6273127,46.7750542 64.6698263,46.4263052 C64.8884677,44.6295012 64.1345019,43.0003075 61.3919405,43.0003075 L61.3919405,43.0005183 C61.3919405,43.0005183 40.7442102,43.0013177 39.565976,43 L39.565976,43.0000439 Z M21.8187147,43.0005622 L21.3082911,47.20962 L34.4961851,47.20962 L35.0046131,43.0005622 L21.8184544,43.0005974 L21.8187147,43.0005622 Z M66.0875249,43.0005622 L65.5782292,47.20962 L79.8749475,47.20962 C79.8749475,47.20962 79.8922999,47.0573828 79.9556365,46.5619308 C80.303554,43.7991711 78.5431437,43.0005622 76.8434671,43.0005622 L66.0875249,43.0005974 L66.0875249,43.0005622 Z M65.3812784,48.8121964 L64.2672484,57.9982626 L69.1996943,57.9965057 L70.3145919,48.8139533 L65.3812784,48.8120207 L65.3812784,48.8121964 Z M74.7516242,48.8121964 L73.6358589,57.9982626 L78.5683048,57.9965057 L79.6832024,48.8139533 L74.7516242,48.8120207 L74.7516242,48.8121964 Z M21.1159388,48.8135141 L20,57.9987018 L33.1870264,57.9987018 L33.6728961,54.0140029 L25.4154525,54.0131245 L25.6243765,52.2948548 L33.8785232,52.2948548 L34.3010563,48.8137776 L21.1166329,48.8137776 L21.1159388,48.8135141 Z M35.2989982,48.8135141 C34.9371987,51.210834 36.1223739,52.2945913 37.8020952,52.2945913 C38.7157039,52.2945913 44.4741284,52.2919559 44.4741284,52.2919559 L44.2658985,54.0128609 L34.6691027,54.0137394 L34.1858358,57.9984383 C34.1858358,57.9984383 44.6337713,58.0019521 45.0571721,57.9984383 C45.4068248,57.9729629 47.8509233,57.9053214 48.6829753,55.8813474 C48.9528066,55.2242586 49.1914033,52.8682263 49.2582104,52.3736528 C49.6425681,49.5010855 47.678266,48.8161494 46.1312913,48.8161494 C45.2784164,48.8161494 36.9830575,48.8135141 35.2989982,48.8135141 L35.2989982,48.8135141 Z M50.6507479,48.8135141 L49.5367179,57.9987018 L54.4665609,57.9987018 L55.1606606,52.2948548 L61.3528974,52.2948548 C63.1089696,52.2948548 64.0529452,51.3389136 64.2282053,50.0551308 C64.3167031,49.4074415 64.3800396,48.8137776 64.3800396,48.8137776 L50.6507479,48.8137776 L50.6507479,48.8135141 Z"></path>
                </g>
            </g>
        </g>
    </g>
</svg>