<?xml version="1.0" encoding="UTF-8" standalone="no"?>
<svg width="58px" height="50px" viewBox="0 0 58 50" version="1.1" xmlns="http://www.w3.org/2000/svg" xmlns:xlink="http://www.w3.org/1999/xlink">
    <!-- Generator: Sketch 44 (41411) - http://www.bohemiancoding.com/sketch -->
    <title>icon_apps</title>
    <desc>Created with Sketch.</desc>
    <defs></defs>
    <g id="Extension" stroke="none" stroke-width="1" fill="none" fill-rule="evenodd">
        <g id="extname_newtab" transform="translate(-610.000000, -299.000000)" fill="#1C93F6">
            <g id="icons" transform="translate(207.000000, 274.000000)">
                <g id="row">
                    <g id="item" transform="translate(382.000000, 0.000000)">
                        <path d="M26.0726073,63.6919272 L31.7194719,67.5102386 L23.5841584,74.810658 C23.5841584,74.810658 22.9461584,75.3230321 23.1375776,74.4264254 L26.0726073,63.6919272 Z M26.6468647,62.43516 L40.5567195,39.1570044 L46.1396502,42.6471812 L32.5171155,66.3735441 L26.6468647,62.43516 Z M41.0352099,38.2925387 L43.3481274,34.5141874 C44.6243188,32.721166 47.4175069,35.0232956 47.4175069,35.0232956 C49.9218436,36.7682879 48.596266,38.2925387 48.596266,38.2925387 L46.5226224,41.750632 L41.0352099,38.2925387 Z M67.7700706,63.0435347 L70.8327769,61.1863464 C70.8327769,61.1863464 71.9175492,60.482048 73.4806779,62.1150366 C75.043998,63.7480251 77.6281564,69.7036304 74.6611597,74.5705126 C74.6611597,74.5705126 73.9592257,75.8192685 73.6083545,74.0581384 C73.6083545,74.0581384 74.0869023,72.0730007 69.7480046,69.7996885 C69.7480046,69.7996885 65.6964271,66.8537772 67.0043941,63.5878001 L67.7700706,63.0435347 Z M62.5060442,57.119936 L68.0571993,53.9179336 L71.3827241,59.5534731 L65.7282026,62.9155084 L62.5060442,57.119936 Z M61.9317868,56.0632963 L46.5225459,29.5833305 C45.1826119,27.2779349 47.2562554,26.3813281 47.2562554,26.3813281 L48.9468693,25.3886632 C51.1795822,24.0759325 52.4245723,26.5094697 52.4245723,26.5094697 L67.5466845,52.9254608 L61.9317868,56.0632963 Z M21,49.7634955 L33.2508251,49.7634955 L29.4942244,56.223406 L21,56.223406 L21,49.7634955 Z M42.9174917,49.7394809 L56.9628713,49.7394809 L60.7194719,56.2714351 L39.3337426,56.2714351 L42.9174917,49.7394809 Z M67.1080858,49.7394809 L79,49.7394809 L79,56.2714351 L70.6971947,56.2714351 L67.1080858,49.7394809 Z" id="icon_apps"></path>
                    </g>
                </g>
            </g>
        </g>
    </g>
</svg>