<?xml version="1.0" encoding="UTF-8" standalone="no"?>
<svg width="46px" height="32px" viewBox="0 0 46 32" version="1.1" xmlns="http://www.w3.org/2000/svg" xmlns:xlink="http://www.w3.org/1999/xlink">
    <!-- Generator: Sketch 44 (41411) - http://www.bohemiancoding.com/sketch -->
    <title>Icon</title>
    <desc>Created with Sketch.</desc>
    <defs>
        <linearGradient x1="50%" y1="0%" x2="50%" y2="100%" id="linearGradient-1">
            <stop stop-color="#E72B22" offset="0%"></stop>
            <stop stop-color="#DD2A22" offset="100%"></stop>
        </linearGradient>
    </defs>
    <g id="Extension" stroke="none" stroke-width="1" fill="none" fill-rule="evenodd">
        <g id="extname_newtab-apps" transform="translate(-997.000000, -226.000000)">
            <g id="side-panel-weather" transform="translate(960.000000, 0.000000)">
                <g id="apps" transform="translate(0.000000, 70.000000)">
                    <g id="icon" transform="translate(15.000000, 156.000000)">
                        <g id="Icon" transform="translate(22.000000, 0.000000)">
                            <polygon id="Shadow" fill="#E9E9E9" points="18.1978022 9.5 30.8141229 18.0210135 32.1849271 13.6992632"></polygon>
                            <path d="M6.49008306,0.514932114 C6.49008306,0.514932114 12.1136491,0 22.9643767,0 C33.8149949,0 38.9642093,0.514932114 38.9642093,0.514932114 C38.9642093,0.514932114 42.9108725,0.650622228 44.4535269,3.56688104 C44.4535269,3.56688104 45.9961813,5.68291335 45.9961813,16 C45.9961813,16 46.0891057,22.387035 45.3581733,25.7826316 C44.6271316,29.1781202 43.0129801,30.1698014 43.0129801,30.1698014 C43.0129801,30.1698014 41.9774743,31.1613747 39.6932832,31.4317842 C37.4090921,31.7023015 30.0025801,32 22.9643767,32 C22.9643767,32 10.079698,31.9927733 5.7396912,31.2849843 C1.39968441,30.5773032 0.78999102,26.5784357 0.78999102,26.5784357 C0.78999102,26.5784357 -0.987488775,16.4556081 0.78999102,5.43288975 C0.78999102,5.43288975 1.30446423,1.02997209 6.49008306,0.514932114 Z M30.7664835,15.75 L18.2664835,9.43131868 L18.2664835,22.0686813 L30.7664835,15.75 Z" id="Play-Button" fill="url(#linearGradient-1)"></path>
                        </g>
                    </g>
                </g>
            </g>
        </g>
    </g>
</svg>