<?xml version="1.0" encoding="UTF-8" standalone="no"?>
<svg width="32px" height="32px" viewBox="0 0 32 32" version="1.1" xmlns="http://www.w3.org/2000/svg" xmlns:xlink="http://www.w3.org/1999/xlink">
    <!-- Generator: Sketch 44 (41411) - http://www.bohemiancoding.com/sketch -->
    <title>Fill 1</title>
    <desc>Created with Sketch.</desc>
    <defs></defs>
    <g id="Extension" stroke="none" stroke-width="1" fill="none" fill-rule="evenodd">
        <g id="extname_newtab-weather" transform="translate(-1004.000000, -245.000000)" fill="#7B8287">
            <g id="side-panel-weather" transform="translate(960.000000, 0.000000)">
                <g id="params" transform="translate(20.000000, 245.000000)">
                    <g id="wind">
                        <path d="M34.472,21.4006638 L39.804,8.90944617 C39.83,8.75745569 39.898,8.68146045 40.01,8.68146045 C40.122,8.68146045 40.19,8.75745569 40.218,8.90944617 L45.526,21.4006638 C45.582,21.5526543 45.572,21.6726468 45.496,21.7566415 C45.42,21.8386364 45.306,21.8386364 45.152,21.7566415 L40.218,19.9027577 C40.08,19.8467612 39.94,19.8467612 39.802,19.9027577 L34.826,21.7566415 C34.686,21.8386364 34.576,21.8386364 34.492,21.7566415 C34.408,21.6726468 34.402,21.5526543 34.472,21.4006638 Z M26.0022472,16.0100937 C26.0022472,19.79412 27.3783772,23.0801891 30.1328786,25.8660578 C32.8851387,28.622767 36.1752998,30 40.0011206,30 C42.5202903,30 44.8534359,29.3719458 47.0005573,28.1180806 C49.1476788,26.8642153 50.851032,25.1662261 52.1106168,23.0151406 C53.3702016,20.8685412 53.999994,18.5335256 53.999994,16.0100937 C54.0022353,13.4889049 53.3724429,11.1494032 52.1106168,8.99607466 C50.8487907,6.84050308 49.1454375,5.13578467 47.0005573,3.88191941 C44.8556771,2.62805415 42.5225315,2 40.0011206,2 C37.4797097,2.00224305 35.1465641,2.62805415 32.9994427,3.88191941 C30.8545624,5.13354162 29.1512093,6.83826003 27.8916244,8.99607466 C26.6297984,11.1516462 25.9977647,13.4889049 26.0000059,16.0100937 L26.0022472,16.0100937 Z M24,16.0290003 C24,13.1291819 24.72,10.4473499 26.154,7.98350417 C27.592,5.52165835 29.538,3.57378035 31.996,2.14386991 C34.452,0.713959463 37.124,-0.00199569672 40.012,4.17802212e-06 C42.178,4.17802212e-06 44.244,0.423977624 46.216,1.26992464 C48.186,2.11587166 49.888,3.25380039 51.316,4.68571071 C52.746,6.11362128 53.886,7.81751456 54.73,9.79539069 C55.578,11.7732668 56,13.8511367 56,16.0310001 C56,18.1968645 55.578,20.2687347 54.73,22.2466109 C53.886,24.2224871 52.746,25.9243805 51.316,27.3462915 C49.888,28.7702023 48.186,29.9001315 46.216,30.7400789 C44.244,31.5800263 42.178,32 40.012,32 C37.832,32 35.754,31.5760266 33.776,30.7280797 C31.798,29.8821326 30.094,28.7442039 28.664,27.3142935 C27.234,25.884383 26.1,24.1884892 25.26,22.2246122 C24.42,20.2627351 24,18.1968645 24,16.0310001 L24,16.0290003 Z" id="Fill-1"></path>
                    </g>
                </g>
            </g>
        </g>
    </g>
</svg>