<?xml version="1.0" encoding="UTF-8" standalone="no"?>
<svg width="48px" height="48px" viewBox="0 0 48 48" version="1.1" xmlns="http://www.w3.org/2000/svg" xmlns:xlink="http://www.w3.org/1999/xlink">
    <!-- Generator: Sketch 47.1 (45422) - http://www.bohemiancoding.com/sketch -->
    <title>Twitter</title>
    <desc>Created with Sketch.</desc>
    <defs></defs>
    <g id="Page-1" stroke="none" stroke-width="1" fill="none" fill-rule="evenodd">
        <g id="everyday-tab_widgets-edit--b" transform="translate(-1026.000000, -316.000000)">
            <g id="item" transform="translate(985.000000, 87.000000)">
                <g transform="translate(15.000000, 203.000000)" id="Twitter">
                    <g transform="translate(26.000000, 26.000000)">
                        <rect id="Rectangle-15" fill="#1DA1F2" x="0" y="0" width="48" height="48" rx="5"></rect>
                        <path d="M10.6708,12.3285861 C10.6708,12.3285861 16.1176,19.0989861 24.4152,19.5061861 C24.4152,19.5061861 22.7216,15.0157861 27.7844,11.9377861 C27.7844,11.9377861 31.8976,9.52178612 35.8672,13.4337861 C35.8672,13.4337861 37.6576,13.3469861 39.8156,11.7601861 C39.8156,11.7601861 40.1332,13.2201861 37.3192,15.5685861 C37.3192,15.5685861 38.8848,15.4417861 40.662,14.2777861 C40.662,14.2777861 40.3236,16.2877861 37.4248,17.7477861 C37.4248,17.7477861 38.3068,33.6509861 22.7872,37.1317861 C22.7872,37.1317861 14.58,38.9837861 8.8,34.4493861 C8.8,34.4493861 14.9312,35.0877861 18.1884,31.6709861 C18.1884,31.6709861 14.1012,32.0541861 12.0892,27.2321861 C12.0892,27.2321861 14.1328,27.5833861 14.9632,26.9129861 C14.9632,26.9129861 10.652,26.9445861 9.694,20.4941861 C9.694,20.4941861 11.4504,21.3881861 12.6,21.2285861 C12.6,21.2285861 7.7196,18.2141861 10.6708,12.3285861" id="Icon" fill="#FFFFFF"></path>
                    </g>
                </g>
            </g>
        </g>
    </g>
</svg>