<?xml version="1.0" encoding="UTF-8" standalone="no"?>
<svg width="48px" height="48px" viewBox="0 0 48 48" version="1.1" xmlns="http://www.w3.org/2000/svg" xmlns:xlink="http://www.w3.org/1999/xlink">
    <!-- Generator: Sketch 47.1 (45422) - http://www.bohemiancoding.com/sketch -->
    <title>Icon</title>
    <desc>Created with Sketch.</desc>
    <defs></defs>
    <g id="Page-1" stroke="none" stroke-width="1" fill="none" fill-rule="evenodd">
        <g id="everyday-tab_widgets-edit--b" transform="translate(-1026.000000, -630.000000)" fill="#1ED760">
            <g id="item" transform="translate(985.000000, 87.000000)">
                <g transform="translate(15.000000, 517.000000)" id="Icon">
                    <path d="M50,74 C36.745166,74 26,63.254834 26,50 C26,36.745166 36.745166,26 50,26 C63.254834,26 74,36.745166 74,50 C74,63.254834 63.254834,74 50,74 Z M67.5981809,45.0445632 C67.5912527,44.5287846 67.2423907,43.8857402 66.5460524,43.4398833 C66.2772378,43.2678505 65.9966987,43.1128718 65.7147738,42.9627962 C60.6967251,40.2920248 55.2711912,39.1847903 49.6621129,38.7878572 C47.1058169,38.6069777 44.551013,38.6581398 42.0011122,38.8972164 C39.6832532,39.1144424 37.3922542,39.4933621 35.1581732,40.1646523 C33.8521525,40.5571087 33.1707364,41.7464158 33.5273793,42.9666333 C33.8889253,44.2035851 35.0791916,44.8310677 36.3926735,44.4720799 C42.5236058,42.7965191 48.7053805,42.8339315 54.9091123,43.964402 C58.2120561,44.5664101 61.3627925,45.6163003 64.2927855,47.2990025 C65.7775541,48.1518117 67.5896539,47.0559822 67.5981809,45.0445632 Z M45.9821198,46.9328955 C44.2546507,46.8948436 42.5408249,47.0449193 40.8357393,47.2882593 C39.3425503,47.501435 37.8699328,47.8231171 36.4256676,48.2601272 C35.3751379,48.5779721 34.8096895,49.5929015 35.1008874,50.588645 C35.3957094,51.5966462 36.4068016,52.1559126 37.452748,51.8525636 C41.4088621,50.7052521 45.4319134,50.4348388 49.5165724,50.8795233 C53.7105905,51.336039 57.687809,52.4616065 61.334392,54.6382367 C62.2852621,55.2058169 63.3754425,54.9400934 63.9356682,54.0331375 C64.4885393,53.1382261 64.2220697,52.0369606 63.2655504,51.4539251 C62.5547162,51.020539 61.8228841,50.6146525 61.0733584,50.252467 C56.3074966,47.9488907 51.2496906,46.9569843 45.9821198,46.9328955 Z M60.4289209,58.7293452 C56.1550596,56.0663978 51.4602311,54.7961543 46.4701668,54.6820815 C43.4243521,54.647146 41.7327695,54.7250556 37.432386,55.7312772 C36.5969867,55.9267474 36.0103214,56.6820954 36.1748259,57.4752229 C36.3541726,58.3402473 37.1110437,58.8542845 38.0101891,58.6683908 C39.4527398,58.3700273 40.9044113,58.141542 42.3688519,57.9876892 C45.4230093,57.6668195 48.46098,57.735838 51.4768665,58.3555076 C54.1442355,58.9035323 56.6407057,59.8797873 58.952219,61.3262426 C59.6061272,61.735503 60.2983907,61.669659 60.81363,61.1859285 C61.5908225,60.4563575 61.4201106,59.3470406 60.4289209,58.7293452 Z"></path>
                </g>
            </g>
        </g>
    </g>
</svg>