<?xml version="1.0" encoding="UTF-8" standalone="no"?>
<svg width="60px" height="17px" viewBox="0 0 60 17" version="1.1" xmlns="http://www.w3.org/2000/svg" xmlns:xlink="http://www.w3.org/1999/xlink">
    <!-- Generator: Sketch 47.1 (45422) - http://www.bohemiancoding.com/sketch -->
    <title>logo_bbc-black</title>
    <desc>Created with Sketch.</desc>
    <defs></defs>
    <g id="Page-1" stroke="none" stroke-width="1" fill="none" fill-rule="evenodd">
        <g id="everyday-tab_widgets-list" transform="translate(-60.000000, -1117.000000)" fill-rule="nonzero" fill="#FFFFFF">
            <g id="item" transform="translate(25.000000, 87.000000)">
                <g transform="translate(15.000000, 988.000000)" id="logo_bbc-black">
                    <g transform="translate(20.000000, 42.000000)">
                        <path d="M32.5915475,5.98830073 C32.5915475,4.17906999 30.2947402,4.28633727 30.2947402,4.28633727 L27.9979329,4.28633727 L27.9979329,7.5563007 L30.2947402,7.5563007 C32.6599596,7.5696488 32.5915475,5.98830073 32.5915475,5.98830073 L32.5915475,5.98830073 Z M27.9979329,12.5417365 L29.747936,12.5417365 C31.5661871,12.4478173 31.4977751,11.1212089 31.4977751,11.1212089 C31.4977751,9.47279872 29.4880687,9.44594169 29.4880687,9.44594169 L27.9979329,9.44594169 L27.9979329,12.5417365 Z M32.1677866,8.80265965 C32.1677866,8.80265965 33.7399512,9.4592898 33.7263344,11.2016192 C33.7263344,11.2016192 33.9653664,14.0560224 30.1067301,14.4045205 L25.8241689,14.4045205 L25.8241689,2.43690141 L30.732282,2.43690141 C30.732282,2.43690141 34.8337236,2.42339248 34.8337236,5.81413212 C34.8337236,5.81413212 34.9293692,8.11917249 32.1677866,8.80265965 L32.1677866,8.80265965 Z M21.0865117,16.7497016 L39.1128396,16.7497016 L39.1128396,0.0977027592 L21.0865117,0.0977027592 L21.0865117,16.7497016 Z" id="Shape" transform="translate(30.099676, 8.423702) scale(-1, 1) rotate(-180.000000) translate(-30.099676, -8.423702) "></path>
                        <path d="M11.804039,5.98830073 C11.804039,4.17906999 9.50723172,4.28633727 9.50723172,4.28633727 L7.21042444,4.28633727 L7.21042444,7.5563007 L9.50723172,7.5563007 C11.872451,7.5696488 11.804039,5.98830073 11.804039,5.98830073 L11.804039,5.98830073 Z M7.21042444,12.5417365 L8.96042753,12.5417365 C10.7786786,12.4478173 10.7102666,11.1212089 10.7102666,11.1212089 C10.7102666,9.47279872 8.70056019,9.44594169 8.70056019,9.44594169 L7.21042444,9.44594169 L7.21042444,12.5417365 Z M11.3802781,8.80265965 C11.3802781,8.80265965 12.9524426,9.4592898 12.9388259,11.2016192 C12.9388259,11.2016192 13.1778579,14.0560224 9.31922164,14.4045205 L5.0366604,14.4045205 L5.0366604,2.43690141 L9.94477351,2.43690141 C9.94477351,2.43690141 14.0462151,2.42339248 14.0462151,5.81413212 C14.0462151,5.81413212 14.1418607,8.11917249 11.3802781,8.80265965 L11.3802781,8.80265965 Z M0.299003204,16.7497016 L18.3253311,16.7497016 L18.3253311,0.0977027592 L0.299003204,0.0977027592 L0.299003204,16.7497016 Z" id="Shape" transform="translate(9.312167, 8.423702) scale(-1, 1) rotate(-180.000000) translate(-9.312167, -8.423702) "></path>
                        <path d="M56.2226512,13.5466396 L56.2226512,11.3353576 C56.2226512,11.3353576 54.0214895,12.6621268 51.5880222,12.6889839 C51.5880222,12.6889839 47.0492029,12.7758269 46.8441308,8.42370229 C46.8441308,8.42370229 46.6800731,4.42007569 51.533391,4.19219303 C51.533391,4.19219303 53.570495,3.95096226 56.3320776,5.67978275 L56.3320776,3.38809048 C56.3320776,3.38809048 52.6271634,1.23052252 48.3342665,2.89228085 C48.3342665,2.89228085 44.724998,4.18527775 44.5881739,8.42370229 C44.5881739,8.42370229 44.437733,12.7827422 49.2502005,14.2301268 C49.2502005,14.2301268 50.5354282,14.7125883 52.8458523,14.4982146 C52.8458523,14.4982146 54.2265616,14.3640903 56.2226512,13.5466396 L56.2226512,13.5466396 Z M41.8740039,0.0977028449 L59.9003318,0.0977028449 L59.9003318,16.7497017 L41.8740039,16.7497017 L41.8740039,0.0977028449 Z" id="Shape" transform="translate(50.887168, 8.423702) scale(-1, 1) rotate(-180.000000) translate(-50.887168, -8.423702) "></path>
                    </g>
                </g>
            </g>
        </g>
    </g>
</svg>