<?xml version="1.0" encoding="UTF-8" standalone="no"?>
<svg width="48px" height="26px" viewBox="0 0 48 26" version="1.1" xmlns="http://www.w3.org/2000/svg" xmlns:xlink="http://www.w3.org/1999/xlink">
    <!-- Generator: Sketch 47.1 (45422) - http://www.bohemiancoding.com/sketch -->
    <title>Page 1</title>
    <desc>Created with Sketch.</desc>
    <defs></defs>
    <g id="Page-1" stroke="none" stroke-width="1" fill="none" fill-rule="evenodd">
        <g id="everyday-tab_widgets-list" transform="translate(-66.000000, -1269.000000)" fill="#486E95">
            <g id="item" transform="translate(25.000000, 87.000000)">
                <g transform="translate(15.000000, 1145.000000)" id="Page-1">
                    <path d="M49.4847059,62.8916318 L52.3547972,62.8916318 C52.3547972,62.8916318 53.2204592,62.800642 53.6640488,62.347318 C54.0712244,61.9313647 54.0579829,61.1530771 54.0579829,61.1530771 C54.0579829,61.1530771 54.0017066,57.4956131 55.7876516,56.9577986 C57.5487688,56.4264833 59.8114072,60.4901516 62.2081155,62.0516012 C64.0205434,63.2344683 65.3993128,62.9761223 65.3993128,62.9761223 L71.8081904,62.8916318 C71.8081904,62.8916318 75.1615959,62.6950289 73.572618,60.1911852 C73.4418584,59.9864582 72.6457142,58.3405182 68.8056842,54.9560235 C64.7868943,51.4122967 65.3248295,51.9858572 70.1662466,45.8586707 C73.1157868,42.1280899 74.2942788,39.8484711 73.9251725,38.8735806 C73.5742732,37.944185 71.4059804,38.1911573 71.4059804,38.1911573 L64.1877172,38.2317777 C64.1877172,38.2317777 63.6530923,38.1635354 63.2558478,38.3877602 C62.8685345,38.6087354 62.6186015,39.1238025 62.6186015,39.1238025 C62.6186015,39.1238025 61.4765236,42.011103 59.9537531,44.467827 C56.7393832,49.647745 55.4549594,49.9223391 54.9286104,49.6006252 C53.7070837,48.8499596 54.0132929,46.5882137 54.0132929,44.9812693 C54.0132929,39.9589586 54.8144026,37.8661938 52.450798,37.3235048 C51.6662401,37.14315 51.0885805,37.0229136 49.0824958,37.0066654 C46.5070275,36.9790435 44.3271484,37.0131646 43.0923801,37.5867252 C42.2714082,37.9685573 41.6391274,38.8199616 42.0247856,38.8687061 C42.501479,38.9288244 43.582315,39.1449251 44.1533539,39.884217 C44.894877,40.8396097 44.868394,42.9859935 44.868394,42.9859935 C44.868394,42.9859935 45.2937766,48.8970793 43.8752828,49.6314968 C42.9020338,50.1335654 41.5679544,49.1066807 38.7028286,44.4044591 C37.2346792,41.9964797 36.1257051,39.3366536 36.1257051,39.3366536 C36.1257051,39.3366536 35.9138413,38.8378346 35.5314935,38.5713646 C35.0696968,38.2480259 34.4225194,38.1472872 34.4225194,38.1472872 L27.5650865,38.1911573 C27.5650865,38.1911573 26.5355613,38.2171544 26.1565238,38.6428565 C25.8205212,39.021439 26.1300409,39.8013514 26.1300409,39.8013514 C26.1300409,39.8013514 31.4994621,51.7291361 37.5789578,57.7409605 C43.1552772,63.2523413 49.4847059,62.8916318 49.4847059,62.8916318"></path>
                </g>
            </g>
        </g>
    </g>
</svg>