<?xml version="1.0" encoding="UTF-8" standalone="no"?>
<svg width="35px" height="30px" viewBox="0 0 35 30" version="1.1" xmlns="http://www.w3.org/2000/svg" xmlns:xlink="http://www.w3.org/1999/xlink">
    <!-- Generator: Sketch 44 (41411) - http://www.bohemiancoding.com/sketch -->
    <title>Page 1</title>
    <desc>Created with Sketch.</desc>
    <defs></defs>
    <g id="Extension" stroke="none" stroke-width="1" fill="none" fill-rule="evenodd">
        <g id="extname_newtab-weather" transform="translate(-1103.000000, -245.000000)" stroke="#7B8287" stroke-width="2">
            <g id="side-panel-weather" transform="translate(960.000000, 0.000000)">
                <g id="params" transform="translate(20.000000, 245.000000)">
                    <g id="humidity" transform="translate(100.000000, 2.000000)">
                        <path d="M45.48,21.88 C45.48,19.05248 40.36,11.64 40.36,11.64 C40.36,11.64 35.24,19.05248 35.24,21.88 C35.24,24.70752 37.53248,27 40.36,27 C43.18752,27 45.48,24.70752 45.48,21.88 Z M51.88,15.36 C54.70752,15.36 57,13.06752 57,10.24 C57,7.41248 51.88,0 51.88,0 C51.88,0 46.76,7.41248 46.76,10.24 C46.76,13.06752 49.05248,15.36 51.88,15.36 M29.12,15.36 C31.94752,15.36 34.24,13.06752 34.24,10.24 C34.24,7.41248 29.12,0 29.12,0 C29.12,0 24,7.41248 24,10.24 C24,13.06752 26.29248,15.36 29.12,15.36" id="Page-1"></path>
                    </g>
                </g>
            </g>
        </g>
    </g>
</svg>