<?xml version="1.0" encoding="UTF-8" standalone="no"?>
<svg width="52px" height="52px" viewBox="0 0 52 52" version="1.1" xmlns="http://www.w3.org/2000/svg" xmlns:xlink="http://www.w3.org/1999/xlink">
    <!-- Generator: Sketch 47.1 (45422) - http://www.bohemiancoding.com/sketch -->
    <title>favicon_amazon</title>
    <desc>Created with Sketch.</desc>
    <defs></defs>
    <g id="Page-1" stroke="none" stroke-width="1" fill="none" fill-rule="evenodd">
        <g id="handy-tab_newtab--blacktheme" transform="translate(-805.000000, -486.000000)">
            <g id="icons" transform="translate(207.000000, 276.000000)">
                <g id="row" transform="translate(0.000000, 179.000000)">
                    <g id="item" transform="translate(573.000000, 7.000000)">
                        <g id="favicon_amazon" transform="translate(25.000000, 24.000000)">
                            <path d="M45.974,40.4848 C39.13,44.7768 31.77,47.2688 23.758,47.6488 C15.83,48.0288 8.306,46.5248 1.098,43.1248 C0.778,42.9688 0.406,42.6248 0.102,43.1048 C-0.202,43.5928 0.242,43.7488 0.574,43.9888 C1.666,44.7928 2.758,45.5968 3.894,46.3288 C9.806,50.1688 16.278,51.9568 21.762,51.9968 C26.19,51.9608 29.074,51.4528 31.962,50.6488 C37.718,49.0528 42.766,46.2088 47.058,41.9088 C47.47,41.4928 47.97,41.0288 47.474,40.3808 C46.97,39.7208 46.47,40.1768 45.974,40.4848" id="Path" fill="#FF9A00"></path>
                            <path d="M51.934,36.5288 C51.922,36.3728 51.846,36.2248 51.814,36.0728 C51.694,35.5528 51.394,35.2368 50.886,35.1448 C47.866,34.6288 45.126,35.6728 42.75,37.6968 C42.55,37.8688 42.278,38.0528 42.398,38.3768 C42.55,38.8048 42.898,38.6368 43.178,38.5688 C44.694,38.1768 46.226,37.8688 47.782,37.7168 C49.15,37.5848 49.694,38.0488 49.734,39.4568 C49.79,41.4688 49.27,43.3968 48.962,45.3528 C48.91,45.6608 48.522,46.0768 49.042,46.2648 C49.422,46.3968 49.614,45.9928 49.814,45.7008 C51.382,43.4488 51.826,40.5248 52.014,38.1048 C51.978,37.4008 51.97,36.9648 51.934,36.5288" id="Path" fill="#FF9A00"></path>
                            <path d="M28.146,23.2208 C28.118,23.9088 28.138,24.5968 28.138,25.5328 C28.21,27.9288 27.83,30.4648 26.19,32.6568 C24.99,34.2648 23.374,35.2048 21.326,35.0288 C18.71,34.8048 17.194,32.5208 17.33,29.5488 C17.53,25.3208 20.306,23.6568 23.682,23.0088 C24.926,22.7688 26.218,22.7688 27.478,22.6128 C28.01,22.5488 28.166,22.7248 28.146,23.2208 M26.79,16.5448 C24.666,16.7568 22.542,16.9648 20.43,17.2968 C17.218,17.8048 14.066,18.6088 11.45,20.7768 C7.358,24.1688 6.226,28.7248 6.982,33.9128 C7.638,38.3848 10.042,41.3928 14.282,42.5408 C16.786,43.2168 19.346,43.0688 21.874,42.4928 C24.578,41.8768 26.718,40.2448 28.614,38.2368 C29.186,37.6368 29.478,37.5648 29.898,38.3568 C30.67,39.8008 31.77,40.9688 32.938,42.0608 C33.85,42.9088 34.514,42.9248 35.442,42.0928 C36.89,40.8008 38.314,39.4688 39.762,38.1768 C41.426,36.6928 41.494,36.3448 40.166,34.5808 C38.674,32.5968 37.81,30.4008 37.886,27.8488 C37.962,25.3768 37.902,22.9008 37.902,20.4288 L37.882,20.4288 C37.882,17.6368 37.946,14.8448 37.906,12.0528 C37.834,6.5128 35.318,2.7448 30.298,1.0808 C25.534,-0.5032 20.75,-0.3312 16.074,1.4968 C11.818,3.1568 9.106,6.3328 8.062,10.9928 C7.73,12.4688 8.166,13.0728 9.598,13.2168 C11.418,13.4008 13.234,13.6128 15.05,13.8528 C16.558,14.0488 16.962,13.8008 17.346,12.2848 C17.866,10.2208 19.122,8.9288 21.078,8.3448 C25.054,7.1608 27.842,9.3048 27.898,13.5968 C27.906,14.1528 27.834,14.7208 27.914,15.2688 C28.066,16.2488 27.594,16.4648 26.79,16.5448" id="Fill-1" fill="#FFFFFF"></path>
                        </g>
                    </g>
                </g>
            </g>
        </g>
    </g>
</svg>