<?xml version="1.0" encoding="UTF-8" standalone="no"?>
<svg width="72px" height="28px" viewBox="0 0 72 28" version="1.1" xmlns="http://www.w3.org/2000/svg" xmlns:xlink="http://www.w3.org/1999/xlink">
    <!-- Generator: Sketch 47.1 (45422) - http://www.bohemiancoding.com/sketch -->
    <title>icon_ebay</title>
    <desc>Created with Sketch.</desc>
    <defs></defs>
    <g id="Page-1" stroke="none" stroke-width="1" fill="none" fill-rule="evenodd">
        <g id="everyday-tab_newtab--animation" transform="translate(-688.000000, -413.000000)" fill-rule="nonzero">
            <g id="icon_ebay" transform="translate(688.000000, 413.000000)">
                <path d="M9.26086964,7 C4.20939254,7 0,9.14858534 0,15.6307693 C0,20.766086 2.83051177,24 9.39130434,24 C17.1136644,24 17.6086957,18.8999999 17.6086957,18.8999999 L13.8668479,18.8999999 C13.8668479,18.8999999 13.0645643,21.6461539 9.1630435,21.6461539 C5.98536138,21.6461539 3.69984782,19.4940323 3.69984782,16.4775209 L18,16.4775209 L18,14.5846154 C18,11.6003372 16.1103731,7 9.26086964,7 L9.26086964,7 Z M9.1304347,9.41923067 C12.1552591,9.41923067 14.2173913,11.2770535 14.2173913,14.0615383 L3.78260868,14.0615383 C3.78260868,11.1054671 6.47421666,9.41923067 9.1304347,9.41923067 L9.1304347,9.41923067 Z" id="e" fill="#E53238"></path>
                <path d="M18.0820589,3.08066344e-16 L18.0820589,19.7418102 C18.0820589,20.8624179 18,22.4358796 18,22.4358796 L21.6197866,22.4358796 C21.6197866,22.4358796 21.7497131,21.3057972 21.7497131,20.2730118 C21.7497131,20.2730118 23.5381215,23 28.4009365,23 C33.5216766,23 37,19.5349023 37,14.5704275 C37,9.95204814 33.8050475,6.23756135 28.4092036,6.23756135 C23.3563769,6.23756135 21.7862712,8.89698674 21.7862712,8.89698674 L21.7862712,0 L18.0820589,3.08066344e-16 Z M27.4748821,8.67939733 C30.952263,8.67939733 33.1634955,11.1948346 33.1634955,14.5704275 C33.1634955,18.1901381 30.6095959,20.558164 27.499688,20.558164 C23.7882855,20.558164 21.7862712,17.7337293 21.7862712,14.602663 C21.7862712,11.6851194 23.5827373,8.67939733 27.4748821,8.67939733 Z" id="b" fill="#0064D2"></path>
                <path d="M46.143939,7 C38.640328,7 38.1590916,11.148881 38.1590916,11.8118576 L41.893939,11.8118576 C41.893939,11.8118576 42.0897933,9.38967234 45.8863639,9.38967234 C48.3534367,9.38967234 50.2651526,10.529959 50.2651526,12.7222089 L50.2651526,13.5025101 L45.8863639,13.5025101 C40.0732109,13.5025101 37,15.2197554 37,18.7045183 C37,22.1340254 39.8395486,24 43.6768472,24 C48.9064893,24 50.5911449,21.0819987 50.5911449,21.0819987 C50.5911449,22.2426199 50.6797575,23.3863257 50.6797575,23.3863257 L54,23.3863257 C54,23.3863257 53.8712113,21.9686666 53.8712113,21.0616782 L53.8712113,13.2220894 C53.8712113,8.08177836 49.7652586,7 46.143939,7 L46.143939,7 Z M50.2651526,15.8434137 L50.2651526,16.8838154 C50.2651526,18.2407827 49.4359358,21.6143916 44.554215,21.6143916 C41.8810014,21.6143916 40.7348498,20.2671833 40.7348498,18.7045183 C40.7348498,15.8617222 44.5946153,15.8434137 50.2651526,15.8434137 L50.2651526,15.8434137 Z" id="a" fill="#F5AF02"></path>
                <polygon id="y" fill="#86B817" points="52 7 56.1903676 7 62.2041272 18.7956626 68.2041279 7 72 7 61.0711011 28 57.0894491 28 60.2431197 22.1459636"></polygon>
            </g>
        </g>
    </g>
</svg>