<?xml version="1.0" encoding="UTF-8" standalone="no"?>
<svg width="60px" height="26px" viewBox="0 0 60 26" version="1.1" xmlns="http://www.w3.org/2000/svg" xmlns:xlink="http://www.w3.org/1999/xlink">
    <!-- Generator: Sketch 47.1 (45422) - http://www.bohemiancoding.com/sketch -->
    <title>Clip 2</title>
    <desc>Created with Sketch.</desc>
    <defs>
        <linearGradient x1="50%" y1="3.50167411%" x2="50%" y2="100%" id="linearGradient-1">
            <stop stop-color="#FF7700" offset="0%"></stop>
            <stop stop-color="#FE3301" offset="100%"></stop>
        </linearGradient>
    </defs>
    <g id="Page-1" stroke="none" stroke-width="1" fill="none" fill-rule="evenodd">
        <g id="everyday-tab_widgets-list" transform="translate(-201.000000, -1269.000000)" fill="url(#linearGradient-1)">
            <g id="item" transform="translate(25.000000, 87.000000)">
                <g transform="translate(156.000000, 1145.000000)" id="Clip-2">
                    <path d="M56.7976503,37 C55.1326895,37 53.5104505,37.3268206 52.0768991,37.8801066 C51.5194399,38.0953227 51.3716939,38.3164594 51.3663537,38.7457075 L51.3663537,62.1175252 C51.3722872,62.5686797 51.7220714,62.9437537 52.1629359,62.9878626 C52.18222,62.9902309 72.4883924,63 72.6201178,63 C76.6958895,63 80,59.7027827 80,55.6349911 C80,51.5677916 76.6958895,48.2708703 72.6201178,48.2708703 C71.6090368,48.2708703 70.6442378,48.4754292 69.7657722,48.8425104 C69.1780517,42.2060391 63.6010858,37 56.7976503,37 Z M49.0442496,39.5343398 L48.7113761,56.1228538 L49.0445463,62.1435761 C49.0504799,62.5831853 49.4148013,62.946122 49.8577426,62.946122 C50.2994971,62.946122 50.6635219,62.5831853 50.6700488,62.1373594 L50.6700488,62.1441681 L51.0314034,56.1228538 L50.6700488,39.5331557 C50.6635219,39.0885139 50.2994971,38.7249852 49.8577426,38.7249852 C49.4148013,38.7249852 49.0504799,39.0885139 49.0442496,39.5343398 Z M46.576773,40.9120782 L46.2892914,56.1166371 C46.2892914,56.1264062 46.576773,62.2312019 46.576773,62.2312019 C46.5824099,62.6438721 46.9241838,62.9837182 47.3377538,62.9837182 C47.7504339,62.9837182 48.0913177,62.6438721 48.0990313,62.2267614 L48.0990313,62.2314979 L48.0990313,62.2267614 L48.4203344,56.1219657 L48.0990313,40.9114861 C48.0919111,40.4943754 47.7504339,40.1548253 47.3377538,40.1548253 C46.9241838,40.1548253 46.5824099,40.4943754 46.576773,40.9120782 Z M39.1945174,42.5053286 L38.8165487,56.1184133 L39.1951107,62.3670811 C39.2043078,62.7010065 39.4713186,62.9659562 39.8027087,62.9659562 C40.132912,62.9659562 40.3984395,62.7010065 40.4103066,62.3650089 L40.4103066,62.3673771 L40.4103066,62.3650089 L40.4103066,62.3647128 L40.8360405,56.1184133 L40.4103066,42.5053286 C40.4002195,42.1669627 40.132912,41.9023091 39.8027087,41.9023091 C39.4713186,41.9023091 39.2043078,42.1669627 39.1945174,42.5053286 Z M41.6358863,42.8537596 L41.2878822,56.1193014 L41.6364796,62.3078745 C41.6438966,62.6714032 41.933455,62.9594435 42.295403,62.9594435 C42.6546808,62.9594435 42.9445359,62.6714032 42.9540296,62.3049142 L42.9540296,62.3096507 L43.3456455,56.1193014 L42.9540296,42.8537596 C42.9445359,42.4863825 42.6546808,42.1998224 42.295403,42.1998224 C41.933455,42.1998224 41.6438966,42.4869745 41.6358863,42.8537596 Z M36.773026,42.9484902 C36.773026,42.9493783 36.3644994,56.1172291 36.3644994,56.1172291 L36.773026,62.4049734 C36.783113,62.7113677 37.0275763,62.9535228 37.3298919,62.9535228 C37.6295373,62.9535228 37.8737039,62.7119597 37.8864611,62.4026051 L38.3472031,56.1172291 L37.8864611,42.9478982 C37.8742972,42.6385435 37.6295373,42.3969805 37.3298919,42.3969805 C37.0275763,42.3969805 36.783113,42.6394316 36.773026,42.9484902 Z M44.0962426,43.338958 L43.7787964,56.1198934 L44.0962426,62.2696862 C44.1039562,62.6616341 44.4163589,62.9709888 44.8073814,62.9709888 C45.1966238,62.9709888 45.5081364,62.6616341 45.5167401,62.2658378 L45.5167401,62.2708703 L45.8727545,56.1207815 L45.5167401,43.3377738 C45.5081364,42.9428656 45.1966238,42.6329189 44.8073814,42.6329189 C44.4163589,42.6329189 44.1039562,42.9428656 44.0962426,43.338958 Z M34.3699286,43.9615157 C34.3699286,43.9621078 33.9314376,56.116045 33.9314376,56.116045 L34.3711154,62.4692126 C34.3823892,62.7474837 34.6040081,62.9665483 34.8763592,62.9665483 C35.1460401,62.9665483 35.3685491,62.7474837 35.3813063,62.4668443 L35.8770564,56.116045 L35.3813063,43.9615157 C35.3685491,43.6811723 35.1460401,43.4615157 34.8763592,43.4615157 C34.6040081,43.4615157 34.3823892,43.6811723 34.3699286,43.9615157 Z M31.9875988,46.2226169 L31.5182532,56.1148609 L31.9875988,62.5079929 C31.999466,62.7572528 32.1991307,62.955003 32.4415172,62.955003 C32.6821236,62.955003 32.881195,62.7572528 32.8954356,62.5062167 L32.8954356,62.5079929 L33.4267871,56.1148609 L32.8954356,46.2226169 C32.881195,45.9709888 32.6821236,45.7735346 32.4415172,45.7735346 C32.1991307,45.7735346 31.999466,45.9709888 31.9875988,46.2226169 Z M27.2787148,49.5574304 L26.74944,56.1119005 L27.2787148,62.4529307 C27.293252,62.6492007 27.4451515,62.7975133 27.6308724,62.7975133 C27.8151098,62.7975133 27.9661193,62.6492007 27.9824366,62.4529307 L28.5835076,56.1119005 L27.9824366,49.5565423 C27.9661193,49.3599763 27.8151098,49.2116637 27.6308724,49.2116637 C27.4451515,49.2116637 27.293252,49.3599763 27.2787148,49.5574304 Z M24.9533473,49.7309059 C24.9533473,49.7314979 24.3935146,56.1110124 24.3935146,56.1110124 L24.9533473,62.2563647 C24.9690712,62.42836 25.095753,62.5512137 25.2541795,62.5512137 C25.4105291,62.5512137 25.5363209,62.42836 25.554715,62.2581409 L26.1907941,56.1110124 L25.5553083,49.7309059 C25.5363209,49.5606868 25.4105291,49.437537 25.2541795,49.437537 C25.095753,49.437537 24.9690712,49.5612789 24.9533473,49.7309059 Z M29.6236631,50.0322676 L29.1243529,56.1119005 L29.6236631,62.5056246 C29.6373103,62.7312019 29.8096806,62.901717 30.0265527,62.901717 C30.2404581,62.901717 30.4128284,62.7312019 30.4291457,62.5062167 L30.995802,56.1119005 L30.4291457,50.0296033 C30.4137184,49.8052102 30.2410514,49.6355832 30.0265527,49.6355832 C29.8096806,49.6355832 29.6373103,49.8058022 29.6236631,50.0322676 Z M22.6475606,50.7335702 C22.6475606,50.7347543 22.0577633,56.1095323 22.0577633,56.1095323 L22.6475606,61.3679692 C22.6647679,61.5082889 22.7700889,61.6107164 22.897364,61.6107164 C23.0234524,61.6107164 23.1261033,61.5112493 23.1462774,61.3688573 L23.8173646,56.1095323 L23.1468708,50.7335702 C23.1261033,50.5908822 23.0234524,50.4920071 22.897364,50.4920071 C22.7700889,50.4920071 22.6647679,50.5935465 22.6475606,50.7335702 Z M20.4384911,52.7850799 L20,56.1095323 L20.4384911,59.3780343 C20.4551051,59.5159858 20.5538991,59.6119005 20.6793942,59.6119005 C20.8001424,59.6119005 20.8989364,59.5168739 20.9185172,59.3795145 L20.9185172,59.3786264 L20.9185172,59.3795145 L21.4382983,56.1095323 L20.9185172,52.7838958 C20.8998264,52.6468324 20.8001424,52.5506217 20.6793942,52.5506217 C20.5538991,52.5506217 20.4551051,52.6474245 20.4384911,52.7850799 Z"></path>
                </g>
            </g>
        </g>
    </g>
</svg>