<?xml version="1.0" encoding="UTF-8" standalone="no"?>
<svg width="48px" height="48px" viewBox="0 0 48 48" version="1.1" xmlns="http://www.w3.org/2000/svg" xmlns:xlink="http://www.w3.org/1999/xlink">
    <!-- Generator: Sketch 47.1 (45422) - http://www.bohemiancoding.com/sketch -->
    <title>Group</title>
    <desc>Created with Sketch.</desc>
    <defs></defs>
    <g id="Page-1" stroke="none" stroke-width="1" fill="none" fill-rule="evenodd">
        <g id="everyday-tab_widgets-edit--b" transform="translate(-1167.000000, -316.000000)">
            <g id="item" transform="translate(985.000000, 87.000000)">
                <g transform="translate(156.000000, 203.000000)" id="Group">
                    <g transform="translate(26.000000, 26.000000)">
                        <rect id="Rectangle-15" fill="#5E4599" x="0" y="0" width="48" height="48" rx="5"></rect>
                        <path d="M11.109375,9 L9,14.3208955 L9,36.0671642 L16.5,36.0671642 L16.5,40 L20.71875,40 L24.703125,36.0671642 L30.796875,36.0671642 L39,27.9701493 L39,9 L11.109375,9 Z M36.1875,26.5820896 L31.5,31.2089552 L24,31.2089552 L20.015625,35.141791 L20.015625,31.2089552 L13.6875,31.2089552 L13.6875,11.7761194 L36.1875,11.7761194 L36.1875,26.5820896 Z M31.5,17.0970149 L31.5,25.1940299 L28.6875,25.1940299 L28.6875,17.0970149 L31.5,17.0970149 Z M24,17.0970149 L24,25.1940299 L21.1875,25.1940299 L21.1875,17.0970149 L24,17.0970149 Z" id="Shape" fill="#FFFFFF"></path>
                    </g>
                </g>
            </g>
        </g>
    </g>
</svg>